<?xml version="1.0" encoding="utf-8"?>
<!-- Generator: Adobe Illustrator 18.0.0, SVG Export Plug-In . SVG Version: 6.00 Build 0)  -->
<!DOCTYPE svg PUBLIC "-//W3C//DTD SVG 1.1//EN" "http://www.w3.org/Graphics/SVG/1.1/DTD/svg11.dtd">
<svg version="1.1" width="200px" height="100px" id="Слой_1" xmlns="http://www.w3.org/2000/svg" xmlns:xlink="http://www.w3.org/1999/xlink" x="0px" y="0px"
	 viewBox="0 0 34 34" enable-background="new 0 0 34 34" xml:space="preserve">
<g>
	<path fill="#0D3356" d="M17,0C7.6,0,0,7.6,0,17c0,9.4,7.6,17,17,17c9.4,0,17-7.6,17-17C34,7.6,26.4,0,17,0z M26.2,12.4l-2.9,6.4
		c-0.1,0.3-0.5,0.5-0.8,0.6L14.2,20l0.5,1.4h9.1c1.1,0,1.9,0.9,1.9,1.9c0,1.1-0.9,1.9-1.9,1.9c-1.1,0-1.9-0.9-1.9-1.9h-9
		c0,1.1-0.9,1.9-1.9,1.9c-1.1,0-1.9-0.9-1.9-1.9c0-1.1,0.9-1.9,1.9-1.9h1.7L8.9,10.7H6.7c-0.5,0-1-0.4-1-1c0-0.5,0.4-1,1-1h2.9
		c0.4,0,0.8,0.3,0.9,0.6l0,0l0.6,1.6h14.3c0.5,0,1,0.4,1,1C26.3,12.2,26.3,12.3,26.2,12.4L26.2,12.4z"/>
	<polygon fill="#0D3356" points="13.5,18.1 21.8,17.5 23.8,13 11.7,13 	"/>
</g>
</svg>
